<?xml version="1.0" encoding="UTF-8" standalone="no"?>
<svg
   viewBox="0 0 1000.0001 1000.8336"
   version="1.1"
   id="svg36"
   width="1000"
   height="1000.8336"
   xmlns="http://www.w3.org/2000/svg"
   xmlns:svg="http://www.w3.org/2000/svg"
   xmlns:rdf="http://www.w3.org/1999/02/22-rdf-syntax-ns#"
   xmlns:cc="http://creativecommons.org/ns#"
   xmlns:dc="http://purl.org/dc/elements/1.1/">
  <defs
     id="defs36" />
  <title
     id="title1">collaboard-logo</title>
  <g
     id="Layer_2"
     data-name="Layer 2"
     transform="matrix(32.50483,0,0,32.50483,3.4019209,3.2597053)">
    <g
       id="Layer_1-2"
       data-name="Layer 1">
      <path
         d="M 30.66,7.17 A 7.17,7.17 0 1 1 23.5,0 7.17,7.17 0 0 1 30.66,7.17"
         fill="#1d1d1b"
         id="path1" />
      <path
         d="M 14.32,23.5 A 7.16,7.16 0 1 1 7.16,16.34 7.16,7.16 0 0 1 14.32,23.5"
         fill="#1d1d1b"
         id="path2" />
      <path
         d="m 28.63,18.07 a 6.78,6.78 0 0 0 -4.42,-1.56 1.79,1.79 0 0 1 -0.39,0 c -0.21,0 -0.42,0 -0.64,0 a 9,9 0 0 1 -9,-9 8.68,8.68 0 0 1 0.06,-0.9 A 6.89,6.89 0 0 0 12.87,2.32 7.47,7.47 0 1 0 2.3,12.86 6.87,6.87 0 0 0 6.59,14.3 h 0.09 a 7.14,7.14 0 0 1 0.8,0 8.91,8.91 0 0 1 8.91,8.91 c 0,0.15 0,0.3 0,0.44 a 3.21,3.21 0 0 1 0,0.36 6.78,6.78 0 0 0 1.42,4.4 7.4,7.4 0 0 0 5.36,2.28 7.48,7.48 0 0 0 7.48,-7.48 7.4,7.4 0 0 0 -2,-5.11"
         fill="#c7d306"
         id="path3" />
    </g>
  </g>
  <metadata
     id="metadata36">
    <rdf:RDF>
      <cc:Work
         rdf:about="">
        <dc:title>collaboard-logo</dc:title>
      </cc:Work>
    </rdf:RDF>
  </metadata>
</svg>
