<svg width="36" height="48" viewBox="0 0 36 48" fill="none" xmlns="http://www.w3.org/2000/svg">
  <ellipse cx="18" cy="45" rx="7" ry="2" fill="#000000" opacity="0.22"/>
  <path d="M18 46C18 46 34 29.1 34 17.5C34 7.8 26.8 2 18 2C9.2 2 2 7.8 2 17.5C2 29.1 18 46 18 46Z" fill="#2E7D32"/>
  <path d="M18 46C18 46 34 29.1 34 17.5C34 7.8 26.8 2 18 2C9.2 2 2 7.8 2 17.5C2 29.1 18 46 18 46Z" stroke="#FFFFFF" stroke-width="3"/>
  <circle cx="18" cy="17" r="9" fill="#FFFFFF"/>
  <path d="M14.5 11.8L23.5 17L14.5 22.2V11.8Z" fill="#2E7D32"/>
</svg>
