<svg width="20" height="30" viewBox="0 0 20 30" fill="none" xmlns="http://www.w3.org/2000/svg">
<path d="M20 10.1588C20 15.9026 9.84607 30 9.84607 30C9.84607 30 0 15.9026 0 10.1588C0 4.41508 3.89838 0 9.84607 0C15.7937 0 20 4.41508 20 10.1588Z" fill="white"/>
<path fill-rule="evenodd" clip-rule="evenodd" d="M9.85508 4.80005C9.28366 4.80005 8.32879 5.02861 7.43024 5.28305C6.51099 5.5418 5.58428 5.84799 5.03935 6.03342C4.81152 6.11178 4.60953 6.25549 4.45659 6.44803C4.30365 6.64057 4.20597 6.87414 4.17476 7.1219C3.68118 10.9833 4.82652 13.8451 6.21616 15.7383C6.80547 16.5481 7.50811 17.2613 8.30063 17.854C8.6203 18.0894 8.91678 18.2697 9.16854 18.393C9.40043 18.5069 9.6497 18.6 9.85508 18.6C10.0605 18.6 10.3089 18.5069 10.5416 18.393C10.8451 18.2394 11.1355 18.0591 11.4095 17.854C12.2021 17.2613 12.9047 16.5481 13.494 15.7383C14.8837 13.8451 16.029 10.9833 15.5354 7.1219C15.5043 6.87402 15.4066 6.64031 15.2537 6.44762C15.1007 6.25494 14.8987 6.11107 14.6708 6.03256C13.8798 5.76244 13.0826 5.51224 12.2799 5.28219C11.3814 5.02947 10.4265 4.80005 9.85508 4.80005ZM11.6323 9.23847C11.7101 9.1575 11.8155 9.112 11.9255 9.112C12.0354 9.112 12.1409 9.1575 12.2186 9.23847C12.2964 9.31945 12.3401 9.42928 12.3401 9.5438C12.3401 9.65832 12.2964 9.76815 12.2186 9.84912L9.73417 12.4366C9.69571 12.4768 9.65002 12.5086 9.59971 12.5304C9.5494 12.5521 9.49547 12.5633 9.44101 12.5633C9.38654 12.5633 9.33261 12.5521 9.2823 12.5304C9.232 12.5086 9.1863 12.4768 9.14784 12.4366L7.9056 11.1429C7.8671 11.1028 7.83656 11.0552 7.81573 11.0028C7.79489 10.9504 7.78417 10.8943 7.78417 10.8375C7.78417 10.7808 7.79489 10.7247 7.81573 10.6723C7.83656 10.6199 7.8671 10.5723 7.9056 10.5322C7.9441 10.4921 7.98981 10.4603 8.04011 10.4386C8.09041 10.4169 8.14432 10.4058 8.19877 10.4058C8.25322 10.4058 8.30713 10.4169 8.35743 10.4386C8.40773 10.4603 8.45344 10.4921 8.49194 10.5322L9.44101 11.5215L11.6323 9.23847V9.23847Z" fill="#42814A"/>
</svg>