<svg width="20" height="30" viewBox="0 0 20 30" fill="none" xmlns="http://www.w3.org/2000/svg">
<path d="M20 10.1588C20 15.9026 9.84607 30 9.84607 30C9.84607 30 0 15.9026 0 10.1588C0 4.41508 3.89838 0 9.84607 0C15.7937 0 20 4.41508 20 10.1588Z" fill="white"/>
<path d="M9.85508 4.80005C9.28366 4.80005 8.32879 5.02861 7.43024 5.28305C6.51099 5.5418 5.58428 5.84799 5.03935 6.03342C4.81152 6.11178 4.60953 6.25549 4.45659 6.44803C4.30365 6.64057 4.20597 6.87414 4.17476 7.1219C3.68118 10.9833 4.82652 13.8451 6.21616 15.7383C6.80547 16.5481 7.50811 17.2613 8.30063 17.854C8.6203 18.0894 8.91678 18.2697 9.16854 18.393C9.40043 18.5069 9.6497 18.6 9.85508 18.6C10.0605 18.6 10.3089 18.5069 10.5416 18.393C10.8451 18.2394 11.1355 18.0591 11.4095 17.854C12.2021 17.2613 12.9047 16.5481 13.494 15.7383C14.8837 13.8451 16.029 10.9833 15.5354 7.1219C15.5043 6.87402 15.4066 6.64031 15.2537 6.44762C15.1007 6.25494 14.8987 6.11107 14.6708 6.03256C13.8798 5.76244 13.0826 5.51224 12.2799 5.28219C11.3814 5.02947 10.4265 4.80005 9.85508 4.80005ZM8.90602 9.23847L9.85508 10.2278L10.8042 9.23847C10.8819 9.1575 10.9874 9.112 11.0973 9.112C11.2073 9.112 11.3127 9.1575 11.3905 9.23847C11.4682 9.31945 11.5119 9.42928 11.5119 9.5438C11.5119 9.65832 11.4682 9.76815 11.3905 9.84912L10.4406 10.8375L11.3905 11.826C11.4682 11.907 11.5119 12.0168 11.5119 12.1313C11.5119 12.2458 11.4682 12.3556 11.3905 12.4366C11.3127 12.5176 11.2073 12.5631 11.0973 12.5631C10.9874 12.5631 10.8819 12.5176 10.8042 12.4366L9.85508 11.4473L8.90602 12.4366C8.86752 12.4767 8.82181 12.5085 8.77151 12.5302C8.72121 12.5519 8.6673 12.5631 8.61285 12.5631C8.5584 12.5631 8.50449 12.5519 8.45419 12.5302C8.40389 12.5085 8.35818 12.4767 8.31968 12.4366C8.28118 12.3965 8.25064 12.3489 8.22981 12.2965C8.20897 12.2442 8.19825 12.188 8.19825 12.1313C8.19825 12.0746 8.20897 12.0184 8.22981 11.9661C8.25064 11.9137 8.28118 11.8661 8.31968 11.826L9.26958 10.8375L8.31968 9.84912C8.28118 9.80903 8.25064 9.76143 8.22981 9.70904C8.20897 9.65665 8.19825 9.6005 8.19825 9.5438C8.19825 9.48709 8.20897 9.43095 8.22981 9.37856C8.25064 9.32617 8.28118 9.27857 8.31968 9.23847C8.35818 9.19838 8.40389 9.16657 8.45419 9.14487C8.50449 9.12317 8.5584 9.112 8.61285 9.112C8.6673 9.112 8.72121 9.12317 8.77151 9.14487C8.82181 9.16657 8.86752 9.19838 8.90602 9.23847V9.23847Z" fill="#CE3E39"/>
</svg>