<svg width="20" height="30" viewBox="0 0 20 30" fill="none" xmlns="http://www.w3.org/2000/svg">
<path d="M20 10.1588C20 15.9026 9.84607 30 9.84607 30C9.84607 30 0 15.9026 0 10.1588C0 4.41508 3.89838 0 9.84607 0C15.7937 0 20 4.41508 20 10.1588Z" fill="white"/>
<path fill-rule="evenodd" clip-rule="evenodd" d="M9.85508 4.91772C9.27373 4.91772 8.3023 5.14239 7.38816 5.39249C6.45296 5.64683 5.51018 5.94779 4.95579 6.13007C4.72401 6.20709 4.51852 6.34834 4.36292 6.5376C4.20733 6.72686 4.10795 6.95644 4.0762 7.19998C3.57405 10.9955 4.73926 13.8085 6.15302 15.6694C6.75255 16.4655 7.46738 17.1665 8.27366 17.749C8.59887 17.9805 8.90049 18.1577 9.15662 18.2789C9.39253 18.3908 9.64613 18.4824 9.85508 18.4824C10.064 18.4824 10.3168 18.3908 10.5535 18.2789C10.8623 18.1279 11.1577 17.9506 11.4365 17.749C12.2428 17.1665 12.9576 16.4655 13.5571 15.6694C14.9709 13.8085 16.1361 10.9955 15.634 7.19998C15.6023 6.95632 15.5029 6.72661 15.3473 6.5372C15.1917 6.3478 14.9862 6.20639 14.7544 6.12922C13.9496 5.8637 13.1386 5.61777 12.322 5.39164C11.4078 5.14324 10.4364 4.91772 9.85508 4.91772ZM9.43381 9.15668C9.43381 9.04426 9.4782 8.93644 9.5572 8.85694C9.6362 8.77745 9.74335 8.73279 9.85508 8.73279C9.9668 8.73279 10.074 8.77745 10.153 8.85694C10.232 8.93644 10.2763 9.04426 10.2763 9.15668V10.4284H11.5401C11.6519 10.4284 11.759 10.473 11.838 10.5525C11.917 10.632 11.9614 10.7398 11.9614 10.8523C11.9614 10.9647 11.917 11.0725 11.838 11.152C11.759 11.2315 11.6519 11.2762 11.5401 11.2762H10.2763V12.5478C10.2763 12.6603 10.232 12.7681 10.153 12.8476C10.074 12.9271 9.9668 12.9717 9.85508 12.9717C9.74335 12.9717 9.6362 12.9271 9.5572 12.8476C9.4782 12.7681 9.43381 12.6603 9.43381 12.5478V11.2762H8.17003C8.0583 11.2762 7.95115 11.2315 7.87215 11.152C7.79315 11.0725 7.74876 10.9647 7.74876 10.8523C7.74876 10.7398 7.79315 10.632 7.87215 10.5525C7.95115 10.473 8.0583 10.4284 8.17003 10.4284H9.43381V9.15668Z" fill="#053662"/>
</svg>