<svg width="20" height="30" viewBox="0 0 20 30" fill="none" xmlns="http://www.w3.org/2000/svg">
<path d="M20 10.1588C20 15.9026 9.84607 30 9.84607 30C9.84607 30 0 15.9026 0 10.1588C0 4.41508 3.89838 0 9.84607 0C15.7937 0 20 4.41508 20 10.1588Z" fill="white"/>
<path fill-rule="evenodd" clip-rule="evenodd" d="M9.85508 4.80005C9.28366 4.80005 8.32879 5.02861 7.43024 5.28305C6.51099 5.5418 5.58428 5.84799 5.03935 6.03342C4.81152 6.11178 4.60953 6.25549 4.45659 6.44803C4.30365 6.64057 4.20597 6.87414 4.17476 7.1219C3.68118 10.9833 4.82652 13.8451 6.21616 15.7383C6.80547 16.5481 7.50811 17.2613 8.30063 17.854C8.6203 18.0894 8.91678 18.2697 9.16854 18.393C9.40043 18.5069 9.6497 18.6 9.85508 18.6C10.0605 18.6 10.3089 18.5069 10.5416 18.393C10.8451 18.2394 11.1355 18.0591 11.4095 17.854C12.2021 17.2613 12.9047 16.5481 13.494 15.7383C14.8837 13.8451 16.029 10.9833 15.5354 7.1219C15.5043 6.87402 15.4066 6.64031 15.2537 6.44762C15.1007 6.25494 14.8987 6.11107 14.6708 6.03256C13.8798 5.76244 13.0826 5.51224 12.2799 5.28219C11.3814 5.02947 10.4265 4.80005 9.85508 4.80005ZM9.3996 12.133L9.10974 9.10824C9.09871 8.99942 9.10978 8.88941 9.14221 8.78534C9.17464 8.68127 9.22772 8.58546 9.298 8.50413C9.36828 8.4228 9.45419 8.35777 9.55017 8.31325C9.64614 8.26874 9.75002 8.24574 9.85508 8.24574C9.96014 8.24574 10.064 8.26874 10.16 8.31325C10.256 8.35777 10.3419 8.4228 10.4122 8.50413C10.4825 8.58546 10.5355 8.68127 10.568 8.78534C10.6004 8.88941 10.6115 8.99942 10.6004 9.10824L10.3106 12.133C10.3008 12.2519 10.2486 12.3625 10.1643 12.4432C10.0799 12.5239 9.9696 12.5686 9.85508 12.5686C9.74057 12.5686 9.63023 12.5239 9.54589 12.4432C9.46154 12.3625 9.40934 12.2519 9.3996 12.133V12.133ZM9.85674 15.15C9.6371 15.15 9.42645 15.0592 9.27115 14.8974C9.11584 14.7357 9.02858 14.5163 9.02858 14.2875C9.02858 14.0588 9.11584 13.8394 9.27115 13.6777C9.42645 13.5159 9.6371 13.425 9.85674 13.425C10.0764 13.425 10.287 13.5159 10.4423 13.6777C10.5976 13.8394 10.6849 14.0588 10.6849 14.2875C10.6849 14.5163 10.5976 14.7357 10.4423 14.8974C10.287 15.0592 10.0764 15.15 9.85674 15.15Z" fill="#FDB913"/>
</svg>