<svg
      width="360"
      height="148"
      viewBox="0 0 360 148"
      fill="none"
      xmlns="http://www.w3.org/2000/svg"
    >
      <path
        d="M315.103 63.8593L360 90H0L35.4233 51.8995L73.73 40.6231L95.9725 57.0251L140.87 22L172.586 44.8945L189.062 29.1759L242.609 63.8593L266.087 48.4824L315.103 63.8593Z"
        fill="#8FA3AD"
      />
      <path
        d="M41.9851 58.9945L0.00390625 95.8361H336.624L303.501 42.1389L267.682 26.2465L246.884 49.3628L204.903 -6.10352e-05L175.246 32.2664L159.841 10.1133L109.771 58.9945L87.8178 37.323L41.9851 58.9945Z"
        fill="#4D5F66"
      />
      <path
        d="M359.995 90.8681C359.995 71.0504 272.649 83.0879 238.293 90.8681H173.074V115.246H359.995V90.8681Z"
        fill="#9BCB66"
      />
      <path
        d="M70.8693 74.477C31.2825 57.9294 10.492 65.854 0.00390625 74.477V118.885H360V96.0343C347.811 101.28 318.193 93.4981 234.143 74.477C199.872 66.7212 221.919 64.0504 150.413 69.0251C108.496 75.8655 95.8471 84.9179 70.8693 74.477Z"
        fill="#61A022"
      />
      <path
        d="M137.531 110.939C58.734 98.312 16.8577 96.2694 0.00390625 110.939V148H360V104.248C314.832 121.148 208.054 122.241 137.531 110.939Z"
        fill="#B3E488"
      />
</svg>